<?xml version="1.0" encoding="UTF-8" standalone="no"?>
<!-- Created with Inkscape (http://www.inkscape.org/) -->

<svg
   width="126.07473mm"
   height="101.26798mm"
   viewBox="0 0 126.07473 101.26798"
   version="1.1"
   id="svg1"
   inkscape:version="1.3.2 (091e20e, 2023-11-25)"
   sodipodi:docname="relaxed_thrust_constraint.svg"
   inkscape:export-filename="../../code/kdjosk.github.io/src/static/relaxed_thrust_constraint.svg"
   inkscape:export-xdpi="96"
   inkscape:export-ydpi="96"
   xmlns:inkscape="http://www.inkscape.org/namespaces/inkscape"
   xmlns:sodipodi="http://sodipodi.sourceforge.net/DTD/sodipodi-0.dtd"
   xmlns="http://www.w3.org/2000/svg"
   xmlns:svg="http://www.w3.org/2000/svg">
  <sodipodi:namedview
     id="namedview1"
     pagecolor="#ffffff"
     bordercolor="#000000"
     borderopacity="0.25"
     inkscape:showpageshadow="2"
     inkscape:pageopacity="0.0"
     inkscape:pagecheckerboard="0"
     inkscape:deskcolor="#d1d1d1"
     inkscape:document-units="mm"
     showgrid="true"
     showguides="true"
     inkscape:zoom="1.4142136"
     inkscape:cx="404.11152"
     inkscape:cy="400.92954"
     inkscape:window-width="1850"
     inkscape:window-height="1016"
     inkscape:window-x="70"
     inkscape:window-y="27"
     inkscape:window-maximized="1"
     inkscape:current-layer="layer1">
    <inkscape:grid
       id="grid59"
       units="mm"
       originx="-29.473894"
       originy="-51.081882"
       spacingx="0.99999998"
       spacingy="1"
       empcolor="#0099e5"
       empopacity="0.30196078"
       color="#0099e5"
       opacity="0.14901961"
       empspacing="5"
       dotted="false"
       gridanglex="30"
       gridanglez="30"
       visible="true"
       snapvisiblegridlinesonly="true" />
  </sodipodi:namedview>
  <defs
     id="defs1">
    <marker
       style="overflow:visible"
       id="marker40"
       refX="0"
       refY="0"
       orient="auto-start-reverse"
       inkscape:stockid="Triangle arrow"
       markerWidth="1"
       markerHeight="1"
       viewBox="0 0 1 1"
       inkscape:isstock="true"
       inkscape:collect="always"
       preserveAspectRatio="xMidYMid">
      <path
         transform="scale(0.5)"
         style="fill:context-stroke;fill-rule:evenodd;stroke:context-stroke;stroke-width:1pt"
         d="M 5.77,0 -2.88,5 V -5 Z"
         id="path40" />
    </marker>
    <marker
       style="overflow:visible"
       id="marker37"
       refX="0"
       refY="0"
       orient="auto-start-reverse"
       inkscape:stockid="Triangle arrow"
       markerWidth="1"
       markerHeight="1"
       viewBox="0 0 1 1"
       inkscape:isstock="true"
       inkscape:collect="always"
       preserveAspectRatio="xMidYMid">
      <path
         transform="scale(0.5)"
         style="fill:context-stroke;fill-rule:evenodd;stroke:context-stroke;stroke-width:1pt"
         d="M 5.77,0 -2.88,5 V -5 Z"
         id="path37" />
    </marker>
    <marker
       style="overflow:visible"
       id="Triangle"
       refX="0"
       refY="0"
       orient="auto-start-reverse"
       inkscape:stockid="Triangle arrow"
       markerWidth="1"
       markerHeight="1"
       viewBox="0 0 1 1"
       inkscape:isstock="true"
       inkscape:collect="always"
       preserveAspectRatio="xMidYMid">
      <path
         transform="scale(0.5)"
         style="fill:context-stroke;fill-rule:evenodd;stroke:context-stroke;stroke-width:1pt"
         d="M 5.77,0 -2.88,5 V -5 Z"
         id="path135" />
    </marker>
  </defs>
  <path
     style="opacity:1;fill:#33ff53;fill-opacity:1;stroke:#ba3c3c;stroke-width:0.429964;stroke-dasharray:none;stroke-dashoffset:0;stroke-opacity:1;marker-end:url(#marker40)"
     d="m 55.526106,58.918119 5.432417,9"
     id="path164" />
  <g
     inkscape:label="Layer 1"
     inkscape:groupmode="layer"
     id="layer1"
     transform="translate(-29.473895,-51.081881)">
    <g
       id="g191"
       transform="translate(-50.116288,-86.837283)">
      <ellipse
         style="opacity:1;fill:#a9dff6;fill-opacity:0.204896;stroke:#218fde;stroke-width:0.499999;stroke-dasharray:none;stroke-dashoffset:0;stroke-opacity:1"
         id="path174"
         ry="41.968575"
         rx="25.056784"
         cy="196.96857"
         cx="120" />
      <ellipse
         style="opacity:1;fill:#ffaaaa;fill-opacity:0.498879;stroke:#ec7e7e;stroke-width:0.499999;stroke-dasharray:none;stroke-dashoffset:0;stroke-opacity:1"
         id="path190"
         ry="14.999883"
         rx="8.9850836"
         cy="197"
         cx="120.01492" />
      <path
         style="opacity:1;fill:none;fill-opacity:0.498879;stroke:#25b32f;stroke-width:0.499999;stroke-dasharray:none;stroke-dashoffset:0;stroke-opacity:1"
         id="ellipse190"
         sodipodi:type="arc"
         sodipodi:cx="120.01492"
         sodipodi:cy="197"
         sodipodi:rx="8.9850836"
         sodipodi:ry="14.999883"
         sodipodi:start="3.072576"
         sodipodi:end="5.8682008"
         sodipodi:arc-type="arc"
         d="m 111.05123,198.03442 a 8.9850836,14.999883 0 0 1 6.81046,-15.59721 8.9850836,14.999883 0 0 1 10.37569,8.5152"
         sodipodi:open="true" />
      <path
         style="opacity:1;fill:#808080;fill-opacity:0.295998;stroke:#25b32f;stroke-width:0.4;stroke-dasharray:none;stroke-dashoffset:0;stroke-opacity:1"
         d="M 120.11629,196.83728 143.1775,180.3558"
         id="path116" />
      <path
         style="opacity:1;fill:#808080;fill-opacity:0.295998;stroke:#25b32f;stroke-width:0.4;stroke-dasharray:none;stroke-dashoffset:0;stroke-opacity:1"
         d="m 120.11629,196.83728 -24.8501,3.69131"
         id="path114" />
      <path
         style="opacity:1;fill:none;fill-opacity:0.204896;stroke:#25b32f;stroke-width:0.499999;stroke-dasharray:none;stroke-dashoffset:0;stroke-opacity:1"
         id="ellipse191"
         sodipodi:type="arc"
         sodipodi:cx="120"
         sodipodi:cy="196.96857"
         sodipodi:rx="25.056784"
         sodipodi:ry="41.968575"
         sodipodi:start="3.0566494"
         sodipodi:end="5.8811293"
         sodipodi:open="true"
         sodipodi:arc-type="arc"
         d="m 95.033559,200.52923 a 25.056784,41.968575 0 0 1 18.925241,-44.29117 25.056784,41.968575 0 0 1 29.09992,24.30773" />
      <path
         style="opacity:0.371586;fill:#25b32f;fill-opacity:0.49678;stroke:none;stroke-width:0.472441;stroke-dasharray:none;stroke-dashoffset:0;stroke-opacity:1"
         d="m 360.1169,754.86332 c -0.24568,-2.94939 0.0309,-24.18102 0.36945,-28.36332 0.9038,-11.16426 2.29866,-21.79139 4.0197,-30.625 6.33295,-32.50534 18.51387,-60.27172 35.20514,-80.25 2.77137,-3.31713 10.26909,-10.71005 13.33996,-13.15348 10.98567,-8.7411 22.20893,-13.73378 34.19229,-15.21047 2.70896,-0.33382 9.76732,-0.3368 12.51312,-0.005 14.90105,1.79911 28.87241,9.14593 41.60376,21.87727 16.32126,16.32127 29.33031,40.68827 37.34046,69.94173 l 0.73924,2.69977 -26.97887,19.27053 c -14.83838,10.5988 -27.00883,19.22765 -27.04545,19.17523 -0.0366,-0.0524 -0.26669,-0.7703 -0.51127,-1.5953 -4.55243,-15.35558 -13.77582,-27.08697 -24.02943,-30.56344 -3.96604,-1.34469 -8.81283,-1.56919 -12.625,-0.58479 -14.33779,3.70238 -25.68303,21.25976 -28.85872,44.66043 -0.48584,3.58002 -0.96831,11.5823 -0.85232,14.13652 0.0833,1.83519 0.05,2.00587 -0.41164,2.10695 -0.27628,0.0605 -13.10232,1.97068 -28.50232,4.24484 -15.4,2.27417 -28.29873,4.19537 -28.66384,4.26934 l -0.66383,0.13448 z"
         id="path191"
         transform="scale(0.26458333)" />
    </g>
    <path
       style="fill:#0000ff;fill-opacity:1;stroke:#808080;stroke-width:0.5;stroke-dasharray:none;stroke-opacity:1;marker-start:url(#Triangle)"
       d="M 70.000002,54.999998 V 110"
       id="path60" />
    <path
       style="fill:#0000ff;fill-opacity:1;stroke:#808080;stroke-width:0.5;stroke-dasharray:none;stroke-opacity:1;marker-end:url(#Triangle)"
       d="M 70.031156,109.92592 31.110581,126.2944"
       id="path62" />
    <path
       style="opacity:1;fill:#00adff;fill-opacity:0.295998;stroke:#808080;stroke-width:0.5;stroke-dasharray:none;stroke-dashoffset:0;stroke-opacity:1;marker-end:url(#marker40)"
       d="M 70.000002,110 H 148.65322"
       id="path39" />
    <path
       style="opacity:1;fill:none;fill-opacity:0.498787;stroke:#000000;stroke-width:0.4;stroke-dasharray:none;stroke-dashoffset:0;stroke-opacity:1"
       id="ellipse43"
       sodipodi:type="arc"
       sodipodi:cx="84.806351"
       sodipodi:cy="109.99999"
       sodipodi:rx="8.950202"
       sodipodi:ry="15.000003"
       sodipodi:start="2.1663658"
       sodipodi:end="4.2546262"
       sodipodi:open="true"
       sodipodi:arc-type="arc"
       d="M 79.785464,122.41743 A 8.950202,15.000003 0 0 1 75.877387,108.96726 8.950202,15.000003 0 0 1 80.850878,96.544338" />
    <ellipse
       style="opacity:1;fill:none;fill-opacity:0.496913;stroke:#000000;stroke-width:0.4;stroke-dasharray:none;stroke-dashoffset:0;stroke-opacity:1"
       id="ellipse44"
       cx="111.99999"
       cy="109.96868"
       rx="25.041876"
       ry="41.968685" />
    <path
       style="opacity:1;fill:#808080;fill-opacity:0.295998;stroke:#000000;stroke-width:0.4;stroke-dasharray:none;stroke-dashoffset:0;stroke-opacity:1"
       d="M 70.000002,110 98.422792,74.703977"
       id="path45" />
    <path
       style="opacity:1;fill:#808080;fill-opacity:0.295998;stroke:#000000;stroke-width:0.4;stroke-dasharray:none;stroke-dashoffset:0;stroke-opacity:1"
       d="m 70.000002,110 26.2347,32.57642"
       id="path46" />
    <path
       style="opacity:1;fill:none;fill-opacity:0.502045;stroke:#000000;stroke-width:0.4;stroke-dasharray:0.4, 0.4;stroke-dashoffset:0;stroke-opacity:1"
       d="M 61.10652,111.25019 H 75.815792"
       id="path52" />
    <path
       style="opacity:1;fill:none;fill-opacity:0.502045;stroke:#000000;stroke-width:0.4;stroke-dasharray:0.4, 0.4;stroke-dashoffset:0;stroke-opacity:1"
       d="m 78.113882,104.01204 h 14.77076"
       id="path53" />
    <path
       style="opacity:1;fill:none;fill-opacity:0.502045;stroke:none;stroke-width:0.1;stroke-dasharray:none;stroke-dashoffset:0;stroke-opacity:1"
       d="m 93.927882,95.755487 c -0.0413,-0.16888 -0.18289,-0.76317 -0.31463,-1.32064 l -0.23954,-1.01358 0.32015,-0.14587 c 0.39718,-0.18096 0.31788,-0.48031 -0.11956,-0.45138 -0.30624,0.0202 -0.36025,-0.0951 -0.99127,-2.11667 -0.36706,-1.17594 -0.80201,-2.49598 -0.96656,-2.93341 l -0.29917,-0.79532 0.81103,-1.8308 c 0.88624,-2.00055 2.05624,-4.18913 3.12147,-5.83897 0.95313,-1.47619 3.24847,-4.31001 4.43196,-5.47169 2.764208,-2.71324 6.153598,-4.59663 9.591148,-5.32954 1.06719,-0.22753 4.26382,-0.22521 5.42396,0.004 4.45082,0.87913 8.47628,3.57091 12.14843,8.12354 0.33974,0.4212 0.61771,0.81766 0.61771,0.88101 0,0.0633 -0.46136,0.36861 -1.02526,0.67834 -4.8557,2.66713 -5.98729,3.26881 -6.29117,3.34508 -0.19204,0.0482 -0.46987,0.2172 -0.61741,0.37556 -0.14753,0.15836 -0.26824,0.22234 -0.26824,0.14218 0,-0.10523 -0.11032,-0.1041 -0.39688,0.004 -0.23631,0.0892 -0.39687,0.24511 -0.39687,0.38538 0,0.25238 -0.21255,0.32553 -0.28802,0.0991 -0.0307,-0.092 -0.18656,-0.0873 -0.47837,0.0144 -0.32902,0.1147 -0.41469,0.20826 -0.35704,0.38991 0.0417,0.13145 0.0139,0.27729 -0.0618,0.32409 -0.0757,0.0468 -0.13768,-0.008 -0.13768,-0.12116 0,-0.23868 -0.29921,-0.26782 -0.67651,-0.0659 -0.17451,0.0934 -0.23619,0.22244 -0.18436,0.38574 0.0428,0.13497 0.0159,0.28368 -0.0598,0.33048 -0.0757,0.0468 -0.13767,-0.004 -0.13767,-0.11335 0,-0.30358 -0.19896,-0.36162 -0.61821,-0.18034 -0.39674,0.17155 -0.46114,0.57414 -0.10441,0.65269 0.13898,0.0306 -20.628338,11.61905 -21.249718,11.85763 -0.0608,0.0234 -0.14441,-0.0957 -0.18571,-0.26458 z m 0.78433,-2.88347 c 0.33613,-0.12779 0.4529,-0.44664 0.21697,-0.59246 -0.1709,-0.10562 -0.80367,0.20139 -0.80367,0.38994 0,0.14026 0.12224,0.33154 0.21188,0.33154 0.0195,0 0.18819,-0.0581 0.37482,-0.12902 z m 1.41096,-0.60679 c 0.17757,-0.10975 -0.0248,-0.45482 -0.26673,-0.45482 -0.3606,0 -0.69698,0.31169 -0.60239,0.55818 0.0679,0.1769 0.1515,0.19503 0.42313,0.0918 0.1862,-0.0708 0.38689,-0.1586 0.44599,-0.19512 z m 0.84039,-0.34376 c 0.62971,-0.28691 0.3679,-0.72948 -0.29486,-0.49844 -0.30161,0.10514 -0.38141,0.20058 -0.33049,0.39529 0.0779,0.29801 0.16585,0.31251 0.62535,0.10315 z m 1.39529,-0.77947 c 0,-0.3447 -0.14135,-0.39203 -0.54594,-0.18281 -0.41487,0.21454 -0.41375,0.21273 -0.30545,0.49497 0.10175,0.26515 0.85139,-0.01 0.85139,-0.31216 z m 0.77401,-0.13828 c 0.44533,-0.15524 0.47898,-0.21286 0.29451,-0.50426 -0.0986,-0.15569 -0.18558,-0.1585 -0.52714,-0.017 -0.45447,0.18824 -0.43983,0.16789 -0.32879,0.45726 0.0955,0.24887 0.047,0.24334 0.56142,0.064 z m 1.258418,-0.55278 c 0.13639,-0.0997 0.19741,-0.25619 0.14907,-0.38218 -0.0683,-0.17791 -0.14632,-0.18898 -0.47022,-0.0667 -0.229348,0.0866 -0.388368,0.24304 -0.388368,0.38217 0,0.27742 0.373358,0.31254 0.709518,0.0667 z m 0.9379,-0.38155 c 0.31848,-0.14511 0.48157,-0.64023 0.21089,-0.64023 -0.48456,0 -0.953,0.46434 -0.71178,0.70556 0.11368,0.11367 0.10575,0.11471 0.50089,-0.0653 z m 1.18824,-0.50466 c 0.36188,-0.13758 0.40172,-0.2292 0.22258,-0.51184 -0.16151,-0.25484 -0.96507,0.16111 -0.85672,0.44346 0.089,0.23192 0.1786,0.24158 0.63414,0.0684 z m 1.06588,-0.42373 c 0.43549,-0.19843 0.38634,-0.58677 -0.0677,-0.53486 -0.41087,0.047 -0.58327,0.21984 -0.48213,0.4834 0.0954,0.24847 0.11366,0.25018 0.54982,0.0515 z m 1.18007,-0.52436 c 0.26337,-0.12 0.30572,-0.19936 0.20591,-0.38586 -0.10754,-0.20094 -0.18304,-0.21312 -0.52377,-0.0845 -0.38142,0.14397 -0.49823,0.34494 -0.30993,0.53324 0.12325,0.12325 0.24635,0.11092 0.62779,-0.0629 z m 0.98407,-0.39104 c 0.44534,-0.15525 0.47899,-0.21286 0.29451,-0.50426 -0.0986,-0.1557 -0.18558,-0.15851 -0.52713,-0.017 -0.45447,0.18825 -0.43984,0.1679 -0.3288,0.45726 0.0955,0.24887 0.047,0.24334 0.56142,0.064 z m 1.27272,-0.56324 c 0.1471,-0.10757 0.21255,-0.26444 0.16357,-0.39208 -0.11831,-0.3083 -0.88738,-0.0312 -0.88738,0.31974 0,0.29808 0.36518,0.33457 0.72381,0.0723 z m 0.99799,-0.41705 c 0.49646,-0.25673 0.40596,-0.65819 -0.11916,-0.52861 -0.4542,0.11208 -0.57137,0.23906 -0.46835,0.50753 0.10314,0.26879 0.10815,0.26897 0.58751,0.0211 z m 1.11386,-0.45871 c 0.36014,-0.13692 0.40153,-0.22956 0.2261,-0.50613 -0.098,-0.15457 -0.4424,-0.0868 -0.91514,0.17998 -0.079,0.0446 0.13767,0.45517 0.24017,0.45517 0.0602,0 0.26223,-0.0581 0.44887,-0.12902 z m 1.39767,-0.80996 c 0,-0.29807 -0.36519,-0.33457 -0.72382,-0.0723 -0.1471,0.10757 -0.21254,0.26444 -0.16356,0.39209 0.1183,0.30829 0.88738,0.0312 0.88738,-0.31975 z m 0.85367,-0.14059 c 0.36341,-0.16557 0.38949,-0.22035 0.22692,-0.47644 -0.0817,-0.12876 -0.20231,-0.13336 -0.52714,-0.0201 -0.46511,0.16214 -0.45355,0.14718 -0.34086,0.44084 0.0958,0.24974 0.19614,0.25846 0.64108,0.0557 z m 1.39529,-0.72756 c 0,-0.27355 -0.26234,-0.34256 -0.66623,-0.17527 -0.31581,0.13082 -0.36251,0.20301 -0.25784,0.3986 0.10983,0.2052 0.1839,0.21768 0.52595,0.0886 0.21896,-0.0827 0.39812,-0.22301 0.39812,-0.3119 z m 0.71899,-0.17397 c 0.33612,-0.12779 0.45289,-0.44664 0.21696,-0.59246 -0.1709,-0.10562 -0.80366,0.20139 -0.80366,0.38994 0,0.14026 0.12224,0.33154 0.21187,0.33154 0.0195,0 0.18819,-0.0581 0.37483,-0.12902 z m 1.41096,-0.60679 c 0.17757,-0.10975 -0.0248,-0.45482 -0.26674,-0.45482 -0.3606,0 -0.69697,0.31169 -0.60239,0.55818 0.0679,0.1769 0.15151,0.19503 0.42314,0.0918 0.18619,-0.0708 0.38689,-0.1586 0.44599,-0.19512 z"
       id="path57" />
    <path
       style="opacity:1;fill:none;fill-opacity:0.498787;stroke:#000000;stroke-width:0.4;stroke-dasharray:1.2, 1.2;stroke-dashoffset:0;stroke-opacity:1"
       id="path107"
       sodipodi:type="arc"
       sodipodi:cx="84.806351"
       sodipodi:cy="109.99999"
       sodipodi:rx="8.950202"
       sodipodi:ry="15.000003"
       sodipodi:start="4.1763498"
       sodipodi:end="2.1818642"
       sodipodi:open="true"
       sodipodi:arc-type="arc"
       d="m 80.235172,97.103915 a 8.950202,15.000003 0 0 1 11.545956,3.496065 8.950202,15.000003 0 0 1 -0.440049,19.64979 8.950202,15.000003 0 0 1 -11.669839,2.03576" />
    <g
       id="g150"
       transform="translate(28.426705,-81.594803)"
       style="fill:#a456dc;fill-opacity:0.397633">
      <g
         id="g149"
         style="fill:#a456dc;fill-opacity:0.397633">
        <path
           style="opacity:1;fill:#a456dc;fill-opacity:0.397633;stroke:#000000;stroke-width:0.441858;stroke-dasharray:none;stroke-dashoffset:0;stroke-opacity:1"
           d="M 58.609457,195.22488 106.31021,173.97586"
           id="path73" />
        <path
           style="opacity:1;fill:#a456dc;fill-opacity:0.397633;stroke:#000000;stroke-width:0.440668;stroke-dasharray:none;stroke-dashoffset:0;stroke-opacity:1"
           d="m 47.469527,193.01286 17.01983,-7.20311"
           id="path76" />
        <path
           style="opacity:1;fill:#a456dc;fill-opacity:0.397633;stroke:#000000;stroke-width:0.2;stroke-dasharray:none;stroke-dashoffset:0;stroke-opacity:1"
           d="m 41.573297,191.5948 17.05169,3.59346"
           id="path113" />
        <path
           style="opacity:1;fill:#a456dc;fill-opacity:0.397633;stroke:#000000;stroke-width:0.2;stroke-dasharray:none;stroke-dashoffset:0;stroke-opacity:1"
           d="M 41.573297,191.5948 106.42671,174.40519"
           id="path115" />
      </g>
      <path
         style="opacity:1;fill:#a456dc;fill-opacity:0.397633;stroke:none;stroke-width:0.534506;stroke-dasharray:0.534506, 0.534506;stroke-dashoffset:0;stroke-opacity:1"
         d="m 202.49848,733.10503 c -10.13275,-2.14564 -18.50937,-3.98919 -18.61472,-4.09678 -0.10534,-0.10759 13.36688,-5.934 29.93827,-12.94757 26.86217,-11.36897 30.12668,-12.83437 30.10094,-13.512 -0.0235,-0.61887 0.30486,-0.85517 1.76776,-1.27213 4.82115,-1.37411 135.38706,-35.8828 135.46549,-35.80365 0.0498,0.0503 -27.93705,12.57367 -62.19297,27.82982 -34.25592,15.25616 -70.32906,31.3306 -80.16254,35.72098 l -17.87906,7.9825 z"
         id="path149"
         transform="scale(0.26458333)" />
    </g>
    <path
       style="opacity:1;fill:#a456dc;fill-opacity:0.397633;stroke:none;stroke-width:0.2;stroke-dasharray:0.2, 0.2;stroke-dashoffset:0;stroke-opacity:1"
       d="m 87.500139,103.98355 c 0.378325,-5.452173 1.892218,-12.049413 3.967536,-17.289732 0.778015,-1.964539 2.337548,-5.079087 3.372289,-6.734804 1.815383,-2.90485 4.847375,-6.379639 6.953226,-7.968681 3.28839,-2.481371 6.61014,-3.685056 10.16947,-3.685056 9.14617,0 17.40125,8.288594 21.83051,21.919123 0.33545,1.032317 0.60992,1.901796 0.60992,1.932178 0,0.03038 -0.6995,0.362683 -1.55443,0.738449 -1.37385,0.60384 -3.75733,1.266894 -20.51734,5.707666 -10.4296,2.763447 -19.011065,5.024457 -19.069929,5.024457 -0.05886,0 -0.159581,-0.22324 -0.223822,-0.49609 -0.08891,-0.37761 -0.191241,-0.50677 -0.428485,-0.54079 -0.270377,-0.0388 -0.300048,-0.004 -0.223887,0.26458 0.267284,0.94153 0.261223,1.03617 -0.0674,1.05256 -0.172807,0.009 -0.388606,0.006 -0.479557,-0.006 -0.09095,-0.0118 -0.166277,0.0555 -0.167391,0.1497 -0.0013,0.1218 -0.03808,0.11412 -0.127069,-0.0266 -0.109895,-0.17383 -0.145703,-0.1719 -0.295629,0.016 -0.0973,0.12192 -0.957165,0.41684 -2.001499,0.68648 l -1.830912,0.47273 z m 0.468572,0.0405 c 0,-0.0728 -0.05953,-0.1323 -0.132292,-0.1323 -0.07276,0 -0.132291,0.0595 -0.132291,0.1323 0,0.0728 0.05953,0.13229 0.132291,0.13229 0.07276,0 0.132292,-0.0595 0.132292,-0.13229 z m 0.396875,0 c 0,-0.0728 -0.05953,-0.1323 -0.132292,-0.1323 -0.07276,0 -0.132291,0.0595 -0.132291,0.1323 0,0.0728 0.05953,0.13229 0.132291,0.13229 0.07276,0 0.132292,-0.0595 0.132292,-0.13229 z m 0.396875,0 c 0,-0.0728 -0.05953,-0.1323 -0.132292,-0.1323 -0.07276,0 -0.132291,0.0595 -0.132291,0.1323 0,0.0728 0.05953,0.13229 0.132291,0.13229 0.07276,0 0.132292,-0.0595 0.132292,-0.13229 z m 0.396875,0 c 0,-0.0728 -0.05953,-0.1323 -0.132292,-0.1323 -0.07276,0 -0.132291,0.0595 -0.132291,0.1323 0,0.0728 0.05953,0.13229 0.132291,0.13229 0.07276,0 0.132292,-0.0595 0.132292,-0.13229 z m 0.396875,0 c 0,-0.0728 -0.05953,-0.1323 -0.132292,-0.1323 -0.07276,0 -0.132291,0.0595 -0.132291,0.1323 0,0.0728 0.05953,0.13229 0.132291,0.13229 0.07276,0 0.132292,-0.0595 0.132292,-0.13229 z m 0.396875,0 c 0,-0.0728 -0.05953,-0.1323 -0.132292,-0.1323 -0.07276,0 -0.132291,0.0595 -0.132291,0.1323 0,0.0728 0.05953,0.13229 0.132291,0.13229 0.07276,0 0.132292,-0.0595 0.132292,-0.13229 z m 0.396875,0 c 0,-0.0728 -0.05953,-0.1323 -0.132292,-0.1323 -0.07276,0 -0.132291,0.0595 -0.132291,0.1323 0,0.0728 0.05953,0.13229 0.132291,0.13229 0.07276,0 0.132292,-0.0595 0.132292,-0.13229 z m 0.396875,0 c 0,-0.0728 -0.05953,-0.1323 -0.132292,-0.1323 -0.07276,0 -0.132291,0.0595 -0.132291,0.1323 0,0.0728 0.05953,0.13229 0.132291,0.13229 0.07276,0 0.132292,-0.0595 0.132292,-0.13229 z m 0.396875,0 c 0,-0.0728 -0.05953,-0.1323 -0.132292,-0.1323 -0.07276,0 -0.132291,0.0595 -0.132291,0.1323 0,0.0728 0.05953,0.13229 0.132291,0.13229 0.07276,0 0.132292,-0.0595 0.132292,-0.13229 z m 1.169395,-2.49763 c 0.143539,-0.091 0.124177,-0.21627 -0.101907,-0.65943 -0.254614,-0.49909 -0.570998,-0.69867 -0.709988,-0.44789 -0.07034,0.1269 0.415194,1.22436 0.540475,1.22167 0.05182,-0.001 0.173955,-0.0526 0.27142,-0.11435 z m -1.075733,-2.105909 c 0.117661,-0.07478 0.07207,-0.248695 -0.172862,-0.659432 -0.349912,-0.586774 -0.406977,-0.622974 -0.694677,-0.440658 -0.142267,0.09016 -0.105082,0.224197 0.182946,0.659434 0.379796,0.573911 0.427059,0.604332 0.684593,0.440656 z m -1.436137,-1.921335 c 0.111213,-0.134004 0.02722,-0.290008 -0.359423,-0.667552 -0.44963,-0.439052 -0.523518,-0.469829 -0.678794,-0.282729 -0.149037,0.179578 -0.110082,0.276149 0.26928,0.667552 0.493667,0.509336 0.56048,0.533903 0.768937,0.282729 z"
       id="path150" />
    <path
       style="opacity:1;fill:#a456dc;fill-opacity:0.397633;stroke:none;stroke-width:0.2;stroke-dasharray:0.2, 0.2;stroke-dashoffset:0;stroke-opacity:1"
       d="m 76.149062,110.50937 c -0.04492,-0.22458 -0.04453,-0.76361 7.94e-4,-1.19785 0.08074,-0.77246 0.09284,-0.79224 0.559773,-0.91503 4.318064,-1.13557 9.657615,-2.54752 9.836886,-2.60119 0.183007,-0.0548 0.23151,0.0107 0.23151,0.31239 0,0.37683 -0.06447,0.40893 -5.060156,2.51888 -2.783086,1.17545 -5.156242,2.17182 -5.27368,2.21416 -0.158473,0.0571 -0.23458,-0.0283 -0.295188,-0.33136 z"
       id="path151" />
    <path
       style="opacity:1;fill:#a456dc;fill-opacity:0.397633;stroke:none;stroke-width:0.2;stroke-dasharray:0.2, 0.2;stroke-dashoffset:0;stroke-opacity:1"
       d="m 76.26328,107.36439 c 0.27052,-2.35 0.99759,-4.95559 1.861531,-6.67114 0.428633,-0.851159 2.331212,-3.379509 2.984757,-3.966471 0.134509,-0.120804 0.24456,-0.261038 0.24456,-0.311632 0,-0.05059 0.145515,-0.264925 0.323368,-0.476292 0.268465,-0.319051 0.342519,-0.350089 0.436137,-0.182803 0.09999,0.178675 0.175593,0.175088 0.667472,-0.03167 0.367882,-0.154636 0.555159,-0.316098 0.556051,-0.479401 0.0011,-0.211254 -0.0664,-0.233524 -0.475565,-0.156763 -0.262302,0.04921 -0.455779,0.03699 -0.429948,-0.02715 0.0905,-0.224715 10.332284,-12.876551 10.382798,-12.826034 0.02808,0.02807 -0.299765,0.789776 -0.728536,1.692672 -2.717707,5.722927 -4.694306,13.469234 -5.128844,20.100004 l -0.08649,1.31975 -0.476192,0.12745 c -4.142314,1.10866 -10.02121,2.65016 -10.107067,2.65016 -0.06138,0 -0.07219,-0.34231 -0.02402,-0.76068 z m 10.117931,-3.34036 c 0,-0.0854 -1.477259,-0.1323 -4.167188,-0.1323 -2.689931,0 -4.167187,0.0469 -4.167187,0.1323 0,0.0854 1.477256,0.13229 4.167187,0.13229 2.689929,0 4.167188,-0.0469 4.167188,-0.13229 z m 0.396875,0 c 0,-0.0728 -0.05953,-0.1323 -0.132292,-0.1323 -0.07276,0 -0.132291,0.0595 -0.132291,0.1323 0,0.0728 0.05953,0.13229 0.132291,0.13229 0.07276,0 0.132292,-0.0595 0.132292,-0.13229 z m 1.162918,-8.22361 c 0.02379,-0.122619 -0.168961,-0.291563 -0.506143,-0.443609 -0.465934,-0.210108 -0.56194,-0.218136 -0.664797,-0.05558 -0.179065,0.282986 -0.164635,0.303917 0.372499,0.540356 0.565883,0.249098 0.743881,0.239922 0.798441,-0.04116 z m -2.221251,-0.772227 c 0,-0.229306 -0.0882,-0.264583 -0.661459,-0.264583 -0.573264,0 -0.661458,0.03528 -0.661458,0.264583 0,0.229304 0.08819,0.264584 0.661458,0.264584 0.573262,0 0.661459,-0.03528 0.661459,-0.264584 z"
       id="path152" />
    <path
       style="fill:#000000;fill-opacity:1;stroke:#000000;stroke-width:0.562999;stroke-dasharray:none;stroke-opacity:1;marker-end:url(#marker37)"
       d="m 70.278672,109.96019 4.99999,-35.000003"
       id="path36" />
    <path
       style="opacity:1;fill:#a456dc;fill-opacity:0.397633;stroke:none;stroke-width:0.0353552;stroke-dasharray:0.0353552, 0.0353552;stroke-dashoffset:0;stroke-opacity:1"
       d="m 87.267904,106.22476 c 0.0072,-0.0728 0.01968,-0.25927 0.02775,-0.41429 l 0.01468,-0.28185 2.454458,-0.65042 c 1.349952,-0.35773 2.458826,-0.64604 2.464165,-0.6407 0.0053,0.005 -1.111655,0.48445 -2.48221,1.0647 l -2.49192,1.055 z"
       id="path153" />
  </g>
  <g
     inkscape:label=""
     transform="translate(42.379892,-3.4033385e-5)"
     id="g74">
    <g
       fill="#000000"
       fill-opacity="1"
       id="g2"
       transform="matrix(0.635,0,0,0.635,-58.5609,-49.2485)">
      <g
         id="use1"
         transform="translate(91.925003,81.962997)">
        <path
           d="M 3.328125,-3.015625 C 3.390625,-3.265625 3.625,-4.1875 4.3125,-4.1875 c 0.046875,0 0.296875,0 0.5,0.125 C 4.53125,-4 4.34375,-3.765625 4.34375,-3.515625 c 0,0.15625 0.109375,0.34375 0.375,0.34375 0.21875,0 0.53125,-0.171875 0.53125,-0.578125 0,-0.515625 -0.578125,-0.65625 -0.921875,-0.65625 -0.578125,0 -0.921875,0.53125 -1.046875,0.75 -0.25,-0.65625 -0.78125,-0.75 -1.078125,-0.75 -1.03125,0 -1.609375,1.28125 -1.609375,1.53125 0,0.109375 0.109375,0.109375 0.125,0.109375 0.078125,0 0.109375,-0.03125 0.125,-0.109375 0.34375,-1.0625 1,-1.3125 1.34375,-1.3125 0.1875,0 0.53125,0.09375 0.53125,0.671875 0,0.3125 -0.171875,0.96875 -0.53125,2.375 -0.15625,0.609375 -0.515625,1.03125 -0.953125,1.03125 -0.0625,0 -0.28125,0 -0.5,-0.125 0.25,-0.0625 0.46875,-0.265625 0.46875,-0.546875 0,-0.265625 -0.21875,-0.34375 -0.359375,-0.34375 -0.3125,0 -0.546875,0.25 -0.546875,0.578125 0,0.453125 0.484375,0.65625 0.921875,0.65625 0.671875,0 1.03125,-0.703125 1.046875,-0.75 0.125,0.359375 0.484375,0.75 1.078125,0.75 1.03125,0 1.59375,-1.28125 1.59375,-1.53125 0,-0.109375 -0.078125,-0.109375 -0.109375,-0.109375 -0.09375,0 -0.109375,0.046875 -0.140625,0.109375 -0.328125,1.078125 -1,1.3125 -1.3125,1.3125 -0.390625,0 -0.546875,-0.3125 -0.546875,-0.65625 0,-0.21875 0.046875,-0.4375 0.15625,-0.875 z m 0,0"
           id="path74" />
      </g>
    </g>
  </g>
  <g
     inkscape:label=""
     transform="translate(4.6232232,76.705499)"
     id="g77">
    <g
       fill="#000000"
       fill-opacity="1"
       id="g76"
       transform="matrix(0.635,0,0,0.635,-58.5609,-49.2485)">
      <g
         id="g75"
         transform="translate(91.925003,81.962997)">
        <path
           d="m 4.84375,-3.796875 c 0.046875,-0.140625 0.046875,-0.15625 0.046875,-0.234375 0,-0.171875 -0.140625,-0.265625 -0.296875,-0.265625 -0.09375,0 -0.25,0.0625 -0.34375,0.203125 -0.015625,0.0625 -0.109375,0.359375 -0.140625,0.546875 -0.078125,0.25 -0.140625,0.53125 -0.203125,0.796875 l -0.453125,1.796875 c -0.03125,0.140625 -0.46875,0.84375 -1.125,0.84375 -0.5,0 -0.609375,-0.4375 -0.609375,-0.8125 C 1.71875,-1.375 1.890625,-2 2.21875,-2.875 2.375,-3.28125 2.421875,-3.390625 2.421875,-3.59375 c 0,-0.4375 -0.3125,-0.8125 -0.8125,-0.8125 -0.953125,0 -1.3125,1.453125 -1.3125,1.53125 0,0.109375 0.09375,0.109375 0.109375,0.109375 0.109375,0 0.109375,-0.03125 0.15625,-0.1875 0.28125,-0.9375 0.671875,-1.234375 1.015625,-1.234375 0.078125,0 0.25,0 0.25,0.3125 0,0.25 -0.109375,0.515625 -0.171875,0.703125 -0.40625,1.0625 -0.578125,1.625 -0.578125,2.09375 0,0.890625 0.625,1.1875 1.21875,1.1875 0.390625,0 0.71875,-0.171875 1,-0.453125 -0.125,0.515625 -0.25,1.015625 -0.640625,1.546875 -0.265625,0.328125 -0.640625,0.625 -1.09375,0.625 -0.140625,0 -0.59375,-0.03125 -0.765625,-0.421875 0.15625,0 0.296875,0 0.421875,-0.125 C 1.328125,1.203125 1.421875,1.0625 1.421875,0.875 1.421875,0.5625 1.15625,0.53125 1.0625,0.53125 0.828125,0.53125 0.5,0.6875 0.5,1.171875 c 0,0.5 0.4375,0.875 1.0625,0.875 1.015625,0 2.046875,-0.90625 2.328125,-2.03125 z m 0,0"
           id="path75" />
      </g>
    </g>
  </g>
  <g
     inkscape:label=""
     transform="translate(46.952381,10.753014)"
     id="g82">
    <g
       fill="#000000"
       fill-opacity="1"
       id="g6"
       transform="matrix(0.635,0,0,0.635,-58.6403,-47.2939)">
      <g
         id="use5"
         transform="translate(91.925003,81.962997)">
        <path
           d="M 7.34375,-6.734375 H 0.625 l -0.203125,2.40625 h 0.46875 c 0.09375,-1.125 0.1875,-1.9375 1.625,-1.9375 H 3.28125 V -0.46875 H 1.75 V 0 c 0.546875,-0.03125 1.65625,-0.03125 2.234375,-0.03125 0.59375,0 1.703125,0 2.234375,0.03125 V -0.46875 H 4.6875 v -5.796875 h 0.765625 c 1.421875,0 1.53125,0.796875 1.625,1.9375 h 0.46875 z m 0,0"
           id="path10" />
      </g>
    </g>
    <g
       fill="#000000"
       fill-opacity="1"
       id="g7"
       transform="matrix(0.635,0,0,0.635,-58.6403,-47.2939)">
      <g
         id="use6"
         transform="translate(99.894997,83.457001)">
        <path
           d="m 3.046875,-2.671875 c -0.25,0.046875 -0.34375,0.234375 -0.34375,0.390625 0,0.1875 0.140625,0.265625 0.265625,0.265625 0.15625,0 0.390625,-0.109375 0.390625,-0.453125 0,-0.46875 -0.53125,-0.609375 -0.90625,-0.609375 -1.046875,0 -2.015625,0.96875 -2.015625,1.9375 0,0.59375 0.40625,1.203125 1.28125,1.203125 1.1875,0 1.734375,-0.6875 1.734375,-0.78125 0,-0.046875 -0.0625,-0.125 -0.125,-0.125 -0.03125,0 -0.046875,0.015625 -0.109375,0.078125 C 2.671875,-0.125 1.859375,-0.125 1.734375,-0.125 c -0.5,0 -0.71875,-0.34375 -0.71875,-0.78125 0,-0.1875 0.09375,-0.953125 0.453125,-1.4375 0.265625,-0.34375 0.625,-0.53125 0.984375,-0.53125 0.09375,0 0.421875,0.015625 0.59375,0.203125 z m 0,0"
           id="path80" />
      </g>
    </g>
    <g
       fill="#000000"
       fill-opacity="1"
       id="g8"
       transform="matrix(0.635,0,0,0.635,-58.6403,-47.2939)">
      <g
         id="use7"
         transform="translate(103.954,81.962997)">
        <path
           d="m 3.296875,2.390625 c 0,-0.03125 0,-0.046875 -0.171875,-0.21875 C 1.890625,0.921875 1.5625,-0.96875 1.5625,-2.5 c 0,-1.734375 0.375,-3.46875 1.609375,-4.703125 0.125,-0.125 0.125,-0.140625 0.125,-0.171875 0,-0.078125 -0.03125,-0.109375 -0.09375,-0.109375 -0.109375,0 -1,0.6875 -1.59375,1.953125 -0.5,1.09375 -0.625,2.203125 -0.625,3.03125 0,0.78125 0.109375,1.984375 0.65625,3.125 C 2.25,1.84375 3.09375,2.5 3.203125,2.5 c 0.0625,0 0.09375,-0.03125 0.09375,-0.109375 z m 0,0"
           id="path81" />
      </g>
    </g>
    <g
       fill="#000000"
       fill-opacity="1"
       id="g9"
       transform="matrix(0.635,0,0,0.635,-58.6403,-47.2939)">
      <g
         id="use8"
         transform="translate(107.828,81.962997)">
        <path
           d="m 2.046875,-3.984375 h 0.9375 c 0.203125,0 0.3125,0 0.3125,-0.203125 0,-0.109375 -0.109375,-0.109375 -0.28125,-0.109375 h -0.875 C 2.5,-5.71875 2.546875,-5.90625 2.546875,-5.96875 c 0,-0.171875 -0.125,-0.265625 -0.296875,-0.265625 -0.03125,0 -0.3125,0 -0.390625,0.359375 L 1.46875,-4.296875 h -0.9375 c -0.203125,0 -0.296875,0 -0.296875,0.1875 0,0.125 0.078125,0.125 0.28125,0.125 h 0.875 C 0.671875,-1.15625 0.625,-0.984375 0.625,-0.8125 0.625,-0.265625 1,0.109375 1.546875,0.109375 2.5625,0.109375 3.125,-1.34375 3.125,-1.421875 3.125,-1.53125 3.046875,-1.53125 3.015625,-1.53125 2.921875,-1.53125 2.90625,-1.5 2.859375,-1.390625 2.4375,-0.34375 1.90625,-0.109375 1.5625,-0.109375 c -0.203125,0 -0.3125,-0.125 -0.3125,-0.453125 0,-0.25 0.03125,-0.3125 0.0625,-0.484375 z m 0,0"
           id="path82" />
      </g>
    </g>
    <g
       fill="#000000"
       fill-opacity="1"
       id="g10"
       transform="matrix(0.635,0,0,0.635,-58.6403,-47.2939)">
      <g
         id="use9"
         transform="translate(111.426,81.962997)">
        <path
           d="m 2.875,-2.5 c 0,-0.765625 -0.109375,-1.96875 -0.65625,-3.109375 -0.59375,-1.21875 -1.453125,-1.875 -1.546875,-1.875 -0.0625,0 -0.109375,0.046875 -0.109375,0.109375 0,0.03125 0,0.046875 0.1875,0.234375 0.984375,0.984375 1.546875,2.5625 1.546875,4.640625 0,1.71875 -0.359375,3.46875 -1.59375,4.71875 C 0.5625,2.34375 0.5625,2.359375 0.5625,2.390625 0.5625,2.453125 0.609375,2.5 0.671875,2.5 0.765625,2.5 1.671875,1.8125 2.25,0.546875 2.765625,-0.546875 2.875,-1.65625 2.875,-2.5 Z m 0,0"
           id="path14" />
      </g>
    </g>
  </g>
  <g
     inkscape:label=""
     transform="translate(115.75858,62.677859)"
     id="g88">
    <g
       fill="#000000"
       fill-opacity="1"
       id="g5"
       transform="matrix(0.635,0,0,0.635,-58.5807,-47.2939)">
      <g
         id="use4"
         transform="translate(91.925003,81.962997)">
        <path
           d="m 5.515625,-6.78125 h -5.1875 v 0.3125 H 0.5625 c 0.765625,0 0.796875,0.109375 0.796875,0.46875 v 5.21875 c 0,0.359375 -0.03125,0.46875 -0.796875,0.46875 H 0.328125 V 0 c 0.34375,-0.03125 1.125,-0.03125 1.515625,-0.03125 0.40625,0 1.3125,0 1.671875,0.03125 V -0.3125 H 3.1875 C 2.25,-0.3125 2.25,-0.4375 2.25,-0.78125 v -5.296875 c 0,-0.328125 0.015625,-0.390625 0.484375,-0.390625 h 1.03125 c 1.421875,0 1.625,0.59375 1.78125,1.9375 h 0.25 z m 0,0"
           id="path83" />
      </g>
      <g
         id="g83"
         transform="translate(98.151627,81.962997)">
        <path
           d="m 3.296875,2.390625 c 0,-0.03125 0,-0.046875 -0.171875,-0.21875 C 1.890625,0.921875 1.5625,-0.96875 1.5625,-2.5 c 0,-1.734375 0.375,-3.46875 1.609375,-4.703125 0.125,-0.125 0.125,-0.140625 0.125,-0.171875 0,-0.078125 -0.03125,-0.109375 -0.09375,-0.109375 -0.109375,0 -1,0.6875 -1.59375,1.953125 -0.5,1.09375 -0.625,2.203125 -0.625,3.03125 0,0.78125 0.109375,1.984375 0.65625,3.125 C 2.25,1.84375 3.09375,2.5 3.203125,2.5 c 0.0625,0 0.09375,-0.03125 0.09375,-0.109375 z m 0,0"
           id="path8" />
      </g>
    </g>
    <g
       fill="#000000"
       fill-opacity="1"
       id="g85"
       transform="matrix(0.635,0,0,0.635,-58.5807,-47.2939)">
      <g
         id="g84"
         transform="translate(102.026,81.962997)">
        <path
           d="m 2.046875,-3.984375 h 0.9375 c 0.203125,0 0.3125,0 0.3125,-0.203125 0,-0.109375 -0.109375,-0.109375 -0.28125,-0.109375 h -0.875 C 2.5,-5.71875 2.546875,-5.90625 2.546875,-5.96875 c 0,-0.171875 -0.125,-0.265625 -0.296875,-0.265625 -0.03125,0 -0.3125,0 -0.390625,0.359375 L 1.46875,-4.296875 h -0.9375 c -0.203125,0 -0.296875,0 -0.296875,0.1875 0,0.125 0.078125,0.125 0.28125,0.125 h 0.875 C 0.671875,-1.15625 0.625,-0.984375 0.625,-0.8125 0.625,-0.265625 1,0.109375 1.546875,0.109375 2.5625,0.109375 3.125,-1.34375 3.125,-1.421875 3.125,-1.53125 3.046875,-1.53125 3.015625,-1.53125 2.921875,-1.53125 2.90625,-1.5 2.859375,-1.390625 2.4375,-0.34375 1.90625,-0.109375 1.5625,-0.109375 c -0.203125,0 -0.3125,-0.125 -0.3125,-0.453125 0,-0.25 0.03125,-0.3125 0.0625,-0.484375 z m 0,0"
           id="path9" />
      </g>
    </g>
    <g
       fill="#000000"
       fill-opacity="1"
       id="g87"
       transform="matrix(0.635,0,0,0.635,-58.5807,-47.2939)">
      <g
         id="g86"
         transform="translate(105.624,81.962997)">
        <path
           d="m 2.875,-2.5 c 0,-0.765625 -0.109375,-1.96875 -0.65625,-3.109375 -0.59375,-1.21875 -1.453125,-1.875 -1.546875,-1.875 -0.0625,0 -0.109375,0.046875 -0.109375,0.109375 0,0.03125 0,0.046875 0.1875,0.234375 0.984375,0.984375 1.546875,2.5625 1.546875,4.640625 0,1.71875 -0.359375,3.46875 -1.59375,4.71875 C 0.5625,2.34375 0.5625,2.359375 0.5625,2.390625 0.5625,2.453125 0.609375,2.5 0.671875,2.5 0.765625,2.5 1.671875,1.8125 2.25,0.546875 2.765625,-0.546875 2.875,-1.65625 2.875,-2.5 Z m 0,0"
           id="path85" />
      </g>
    </g>
  </g>
  <g
     inkscape:label=""
     transform="translate(31.927812,40.171421)"
     id="g89">
    <g
       fill="#000000"
       fill-opacity="1"
       id="g3"
       transform="matrix(0.635,0,0,0.635,-58.5609,-49.2485)">
      <g
         id="use2"
         transform="translate(91.925003,81.962997)">
        <path
           d="m 0.328125,1.71875 c -0.03125,0.125 -0.03125,0.140625 -0.03125,0.171875 0,0.140625 0.109375,0.265625 0.28125,0.265625 0.203125,0 0.328125,-0.1875 0.34375,-0.21875 0.0625,-0.078125 0.375,-1.421875 0.640625,-2.5 0.203125,0.40625 0.515625,0.671875 0.984375,0.671875 C 3.71875,0.109375 5,-1.296875 5,-2.78125 c 0,-1.0625 -0.65625,-1.625 -1.375,-1.625 -0.96875,0 -2.015625,1 -2.3125,2.21875 z m 2.21875,-1.828125 C 1.84375,-0.109375 1.6875,-0.90625 1.6875,-1 c 0,-0.03125 0.046875,-0.234375 0.078125,-0.359375 0.28125,-1.125 0.375,-1.484375 0.59375,-1.875 0.4375,-0.734375 0.9375,-0.953125 1.234375,-0.953125 0.375,0 0.6875,0.296875 0.6875,0.984375 0,0.546875 -0.28125,1.65625 -0.546875,2.140625 -0.328125,0.640625 -0.8125,0.953125 -1.1875,0.953125 z m 0,0"
           id="path4" />
      </g>
    </g>
    <g
       fill="#000000"
       fill-opacity="1"
       id="g4"
       transform="matrix(0.635,0,0,0.635,-58.5609,-49.2485)">
      <g
         id="use3"
         transform="translate(97.075996,83.457001)">
        <path
           d="m 2.328125,-4.4375 c 0,-0.1875 0,-0.1875 -0.203125,-0.1875 -0.453125,0.4375 -1.078125,0.4375 -1.359375,0.4375 v 0.25 c 0.15625,0 0.625,0 1,-0.1875 v 3.546875 c 0,0.234375 0,0.328125 -0.6875,0.328125 H 0.8125 V 0 c 0.125,0 0.984375,-0.03125 1.234375,-0.03125 0.21875,0 1.09375,0.03125 1.25,0.03125 V -0.25 H 3.03125 c -0.703125,0 -0.703125,-0.09375 -0.703125,-0.328125 z m 0,0"
           id="path5" />
      </g>
    </g>
  </g>
  <g
     inkscape:label=""
     transform="translate(85.506275,70.028709)"
     id="g94">
    <g
       fill="#000000"
       fill-opacity="1"
       id="g91"
       transform="matrix(0.635,0,0,0.635,-58.5609,-49.2485)">
      <g
         id="g90"
         transform="translate(91.925003,81.962997)">
        <path
           d="m 0.328125,1.71875 c -0.03125,0.125 -0.03125,0.140625 -0.03125,0.171875 0,0.140625 0.109375,0.265625 0.28125,0.265625 0.203125,0 0.328125,-0.1875 0.34375,-0.21875 0.0625,-0.078125 0.375,-1.421875 0.640625,-2.5 0.203125,0.40625 0.515625,0.671875 0.984375,0.671875 C 3.71875,0.109375 5,-1.296875 5,-2.78125 c 0,-1.0625 -0.65625,-1.625 -1.375,-1.625 -0.96875,0 -2.015625,1 -2.3125,2.21875 z m 2.21875,-1.828125 C 1.84375,-0.109375 1.6875,-0.90625 1.6875,-1 c 0,-0.03125 0.046875,-0.234375 0.078125,-0.359375 0.28125,-1.125 0.375,-1.484375 0.59375,-1.875 0.4375,-0.734375 0.9375,-0.953125 1.234375,-0.953125 0.375,0 0.6875,0.296875 0.6875,0.984375 0,0.546875 -0.28125,1.65625 -0.546875,2.140625 -0.328125,0.640625 -0.8125,0.953125 -1.1875,0.953125 z m 0,0"
           id="path89" />
      </g>
    </g>
    <g
       fill="#000000"
       fill-opacity="1"
       id="g93"
       transform="matrix(0.635,0,0,0.635,-58.5609,-49.2485)">
      <g
         id="g92"
         transform="translate(97.075996,83.457001)">
        <path
           d="M 3.515625,-1.265625 H 3.28125 c -0.015625,0.15625 -0.09375,0.5625 -0.1875,0.625 C 3.046875,-0.59375 2.515625,-0.59375 2.40625,-0.59375 H 1.125 c 0.734375,-0.640625 0.984375,-0.84375 1.390625,-1.171875 0.515625,-0.40625 1,-0.84375 1,-1.5 0,-0.84375 -0.734375,-1.359375 -1.625,-1.359375 -0.859375,0 -1.453125,0.609375 -1.453125,1.25 0,0.34375 0.296875,0.390625 0.375,0.390625 0.15625,0 0.359375,-0.125 0.359375,-0.375 0,-0.125 -0.046875,-0.375 -0.40625,-0.375 C 0.984375,-4.21875 1.453125,-4.375 1.78125,-4.375 c 0.703125,0 1.0625,0.546875 1.0625,1.109375 0,0.609375 -0.4375,1.078125 -0.65625,1.328125 L 0.515625,-0.265625 C 0.4375,-0.203125 0.4375,-0.1875 0.4375,0 h 2.875 z m 0,0"
           id="path91" />
      </g>
    </g>
  </g>
  <path
     style="opacity:1;fill:#33ff53;fill-opacity:1;stroke:#ba3c3c;stroke-width:0.463085;stroke-dasharray:none;stroke-dashoffset:0;stroke-opacity:1;marker-end:url(#marker40)"
     d="m 82.486245,58.900339 20.225515,20.69787"
     id="path154" />
  <g
     inkscape:label=""
     transform="translate(51.806339,64.386469)"
     id="g159">
    <g
       fill="#000000"
       fill-opacity="1"
       id="g156"
       transform="matrix(0.635,0,0,0.635,-58.5609,-49.2485)">
      <g
         id="g155"
         transform="translate(91.925003,81.962997)">
        <path
           d="m 0.328125,1.71875 c -0.03125,0.125 -0.03125,0.140625 -0.03125,0.171875 0,0.140625 0.109375,0.265625 0.28125,0.265625 0.203125,0 0.328125,-0.1875 0.34375,-0.21875 0.0625,-0.078125 0.375,-1.421875 0.640625,-2.5 0.203125,0.40625 0.515625,0.671875 0.984375,0.671875 C 3.71875,0.109375 5,-1.296875 5,-2.78125 c 0,-1.0625 -0.65625,-1.625 -1.375,-1.625 -0.96875,0 -2.015625,1 -2.3125,2.21875 z m 2.21875,-1.828125 C 1.84375,-0.109375 1.6875,-0.90625 1.6875,-1 c 0,-0.03125 0.046875,-0.234375 0.078125,-0.359375 0.28125,-1.125 0.375,-1.484375 0.59375,-1.875 0.4375,-0.734375 0.9375,-0.953125 1.234375,-0.953125 0.375,0 0.6875,0.296875 0.6875,0.984375 0,0.546875 -0.28125,1.65625 -0.546875,2.140625 -0.328125,0.640625 -0.8125,0.953125 -1.1875,0.953125 z m 0,0"
           id="path155" />
      </g>
    </g>
    <g
       fill="#000000"
       fill-opacity="1"
       id="g158"
       transform="matrix(0.635,0,0,0.635,-58.5609,-49.2485)">
      <g
         id="g157"
         transform="translate(97.075996,83.457001)">
        <path
           d="m 2.328125,-4.4375 c 0,-0.1875 0,-0.1875 -0.203125,-0.1875 -0.453125,0.4375 -1.078125,0.4375 -1.359375,0.4375 v 0.25 c 0.15625,0 0.625,0 1,-0.1875 v 3.546875 c 0,0.234375 0,0.328125 -0.6875,0.328125 H 0.8125 V 0 c 0.125,0 0.984375,-0.03125 1.234375,-0.03125 0.21875,0 1.09375,0.03125 1.25,0.03125 V -0.25 H 3.03125 c -0.703125,0 -0.703125,-0.09375 -0.703125,-0.328125 z m 0,0"
           id="path156" />
      </g>
    </g>
  </g>
  <g
     inkscape:label=""
     transform="translate(33.343301,11.794802)"
     id="g169">
    <g
       fill="#000000"
       fill-opacity="1"
       id="g166"
       transform="matrix(0.635,0,0,0.635,-58.5609,-49.2485)">
      <g
         id="g165"
         transform="translate(91.925003,81.962997)">
        <path
           d="m 0.328125,1.71875 c -0.03125,0.125 -0.03125,0.140625 -0.03125,0.171875 0,0.140625 0.109375,0.265625 0.28125,0.265625 0.203125,0 0.328125,-0.1875 0.34375,-0.21875 0.0625,-0.078125 0.375,-1.421875 0.640625,-2.5 0.203125,0.40625 0.515625,0.671875 0.984375,0.671875 C 3.71875,0.109375 5,-1.296875 5,-2.78125 c 0,-1.0625 -0.65625,-1.625 -1.375,-1.625 -0.96875,0 -2.015625,1 -2.3125,2.21875 z m 2.21875,-1.828125 C 1.84375,-0.109375 1.6875,-0.90625 1.6875,-1 c 0,-0.03125 0.046875,-0.234375 0.078125,-0.359375 0.28125,-1.125 0.375,-1.484375 0.59375,-1.875 0.4375,-0.734375 0.9375,-0.953125 1.234375,-0.953125 0.375,0 0.6875,0.296875 0.6875,0.984375 0,0.546875 -0.28125,1.65625 -0.546875,2.140625 -0.328125,0.640625 -0.8125,0.953125 -1.1875,0.953125 z m 0,0"
           id="path165" />
      </g>
    </g>
    <g
       fill="#000000"
       fill-opacity="1"
       id="g168"
       transform="matrix(0.635,0,0,0.635,-58.5609,-49.2485)">
      <g
         id="g167"
         transform="translate(97.075996,83.457001)">
        <path
           d="M 3.515625,-1.265625 H 3.28125 c -0.015625,0.15625 -0.09375,0.5625 -0.1875,0.625 C 3.046875,-0.59375 2.515625,-0.59375 2.40625,-0.59375 H 1.125 c 0.734375,-0.640625 0.984375,-0.84375 1.390625,-1.171875 0.515625,-0.40625 1,-0.84375 1,-1.5 0,-0.84375 -0.734375,-1.359375 -1.625,-1.359375 -0.859375,0 -1.453125,0.609375 -1.453125,1.25 0,0.34375 0.296875,0.390625 0.375,0.390625 0.15625,0 0.359375,-0.125 0.359375,-0.375 0,-0.125 -0.046875,-0.375 -0.40625,-0.375 C 0.984375,-4.21875 1.453125,-4.375 1.78125,-4.375 c 0.703125,0 1.0625,0.546875 1.0625,1.109375 0,0.609375 -0.4375,1.078125 -0.65625,1.328125 L 0.515625,-0.265625 C 0.4375,-0.203125 0.4375,-0.1875 0.4375,0 h 2.875 z m 0,0"
           id="path166" />
      </g>
    </g>
  </g>
  <path
     style="opacity:1;fill:none;fill-opacity:1;stroke:#0c0404;stroke-width:0.5;stroke-dasharray:none;stroke-dashoffset:0;stroke-opacity:1;marker-end:url(#marker40)"
     d="m 40.526107,26.850385 c 0,0 -15.278711,-0.318976 -17.000001,32.671494"
     id="path169"
     sodipodi:nodetypes="cc" />
  <g
     inkscape:label=""
     transform="translate(23.272585,34.77545)"
     id="g174">
    <g
       fill="#000000"
       fill-opacity="1"
       id="g173"
       transform="matrix(0.635,0,0,0.635,-58.6403,-47.5817)">
      <g
         id="g172"
         transform="translate(91.925003,81.962997)">
        <path
           d="m 4.53125,-4.984375 c 0,-0.65625 -0.171875,-2.046875 -1.1875,-2.046875 -1.390625,0 -2.921875,2.8125 -2.921875,5.09375 0,0.9375 0.28125,2.046875 1.1875,2.046875 1.40625,0 2.921875,-2.859375 2.921875,-5.09375 z M 1.46875,-3.625 C 1.640625,-4.25 1.84375,-5.046875 2.25,-5.765625 2.515625,-6.25 2.875,-6.8125 3.328125,-6.8125 c 0.484375,0 0.546875,0.640625 0.546875,1.203125 0,0.5 -0.078125,1 -0.3125,1.984375 z m 2,0.328125 C 3.359375,-2.84375 3.15625,-2 2.765625,-1.28125 c -0.34375,0.6875 -0.71875,1.171875 -1.15625,1.171875 -0.328125,0 -0.53125,-0.296875 -0.53125,-1.21875 0,-0.421875 0.0625,-1 0.3125,-1.96875 z m 0,0"
           id="path2" />
      </g>
    </g>
  </g>
</svg>
