<?xml version="1.0" encoding="UTF-8" standalone="no"?>
<!-- Created with Inkscape (http://www.inkscape.org/) -->

<svg
   width="115.03113mm"
   height="114.42591mm"
   viewBox="0 0 115.03113 114.42591"
   version="1.1"
   id="svg1"
   inkscape:version="1.3.2 (091e20e, 2023-11-25)"
   sodipodi:docname="thrust_constraint.svg"
   inkscape:export-filename="../../code/kdjosk.github.io/src/static/thrust_constraint.svg"
   inkscape:export-xdpi="96"
   inkscape:export-ydpi="96"
   xmlns:inkscape="http://www.inkscape.org/namespaces/inkscape"
   xmlns:sodipodi="http://sodipodi.sourceforge.net/DTD/sodipodi-0.dtd"
   xmlns:xlink="http://www.w3.org/1999/xlink"
   xmlns="http://www.w3.org/2000/svg"
   xmlns:svg="http://www.w3.org/2000/svg">
  <sodipodi:namedview
     id="namedview1"
     pagecolor="#ffffff"
     bordercolor="#000000"
     borderopacity="0.25"
     inkscape:showpageshadow="2"
     inkscape:pageopacity="0.0"
     inkscape:pagecheckerboard="0"
     inkscape:deskcolor="#d1d1d1"
     inkscape:document-units="mm"
     showgrid="true"
     inkscape:zoom="1.4142136"
     inkscape:cx="404.11152"
     inkscape:cy="294.86353"
     inkscape:window-width="1850"
     inkscape:window-height="1016"
     inkscape:window-x="70"
     inkscape:window-y="27"
     inkscape:window-maximized="1"
     inkscape:current-layer="svg1">
    <inkscape:grid
       id="grid1"
       units="mm"
       originx="-52.349628"
       originy="-8.2244621"
       spacingx="0.99999998"
       spacingy="1"
       empcolor="#0099e5"
       empopacity="0.30196078"
       color="#0099e5"
       opacity="0.14901961"
       empspacing="5"
       dotted="false"
       gridanglex="30"
       gridanglez="30"
       visible="true" />
  </sodipodi:namedview>
  <defs
     id="defs1">
    <marker
       style="overflow:visible"
       id="marker13"
       refX="0"
       refY="0"
       orient="auto-start-reverse"
       inkscape:stockid="Triangle arrow"
       markerWidth="1"
       markerHeight="1"
       viewBox="0 0 1 1"
       inkscape:isstock="true"
       inkscape:collect="always"
       preserveAspectRatio="xMidYMid">
      <path
         transform="scale(0.5)"
         style="fill:context-stroke;fill-rule:evenodd;stroke:context-stroke;stroke-width:1pt"
         d="M 5.77,0 -2.88,5 V -5 Z"
         id="path13" />
    </marker>
    <marker
       style="overflow:visible"
       id="Triangle"
       refX="0"
       refY="0"
       orient="auto-start-reverse"
       inkscape:stockid="Triangle arrow"
       markerWidth="1"
       markerHeight="1"
       viewBox="0 0 1 1"
       inkscape:isstock="true"
       inkscape:collect="always"
       preserveAspectRatio="xMidYMid">
      <path
         transform="scale(0.5)"
         style="fill:context-stroke;fill-rule:evenodd;stroke:context-stroke;stroke-width:1pt"
         d="M 5.77,0 -2.88,5 V -5 Z"
         id="path135" />
    </marker>
    <pattern
       inkscape:collect="always"
       xlink:href="#Strips1_1.5"
       preserveAspectRatio="xMidYMid"
       id="pattern47"
       patternTransform="matrix(1.7320509,-1,1,1.7320509,0,0)"
       x="0"
       y="0" />
    <pattern
       inkscape:collect="always"
       xlink:href="#Strips1_1.5"
       preserveAspectRatio="xMidYMid"
       id="pattern46"
       patternTransform="matrix(1.7320509,-1,1,1.7320509,0,0)"
       x="0"
       y="0" />
    <pattern
       inkscape:collect="always"
       patternUnits="userSpaceOnUse"
       width="2.5"
       height="1"
       patternTransform="translate(0,0) scale(2,2)"
       preserveAspectRatio="xMidYMid"
       id="Strips1_1.5"
       style="fill:#04a90b"
       inkscape:stockid="Stripes 02 (2:3)"
       inkscape:isstock="true"
       inkscape:label="Stripes 02 (2:3)">
      <rect
         style="stroke:none"
         x="0"
         y="-0.5"
         width="1"
         height="2"
         id="rect140" />
    </pattern>
  </defs>
  <g
     inkscape:label="Layer 1"
     inkscape:groupmode="layer"
     id="layer1"
     transform="translate(-52.349626,-8.2244623)">
    <path
       style="fill:#5bc5ef;fill-opacity:0.307131;stroke:#000000;stroke-width:0.5;stroke-dasharray:none;stroke-dashoffset:0;marker-end:url(#Triangle);paint-order:fill markers stroke"
       d="M 100,74.999997 V 9.9999997"
       id="path1" />
    <path
       style="fill:#5bc5ef;fill-opacity:0.307131;stroke:#000000;stroke-width:0.5;stroke-dasharray:none;stroke-dashoffset:0;marker-end:url(#Triangle);paint-order:fill markers stroke"
       d="m 100,74.999997 h 60.51295"
       id="path2" />
    <path
       style="fill:#5bc5ef;fill-opacity:0.307131;stroke:#000000;stroke-width:0.5;stroke-dasharray:none;stroke-dashoffset:0;marker-end:url(#marker13);paint-order:fill markers stroke"
       d="M 100,74.999997 60.000001,110"
       id="path3" />
    <circle
       style="fill:#a9dff6;fill-opacity:0.201794;stroke:#218fde;stroke-width:0.5;stroke-dasharray:none;stroke-dashoffset:0;stroke-opacity:1;paint-order:fill markers stroke"
       id="path4"
       cx="100"
       cy="75"
       r="47.400372" />
    <path
       style="fill:none;fill-opacity:0.201667;stroke:#218fde;stroke-width:0.5;stroke-dasharray:none;stroke-dashoffset:0;stroke-opacity:1;paint-order:fill markers stroke"
       id="path5"
       sodipodi:type="arc"
       sodipodi:cx="100"
       sodipodi:cy="75"
       sodipodi:rx="47.400372"
       sodipodi:ry="10.729857"
       sodipodi:start="0"
       sodipodi:end="3.1404439"
       sodipodi:open="true"
       sodipodi:arc-type="arc"
       d="M 147.40037,75 A 47.400372,10.729857 0 0 1 100.02723,85.729856 47.400372,10.729857 0 0 1 52.59966,75.012326" />
    <circle
       style="fill:#ffaaaa;fill-opacity:0.25655;stroke:#ec7e7e;stroke-width:0.4;stroke-dasharray:none;stroke-dashoffset:0;stroke-opacity:1;paint-order:fill markers stroke"
       id="circle5"
       cx="99.911926"
       cy="75"
       r="22.088079" />
    <path
       style="fill:none;fill-opacity:0.200295;stroke:#ec7e7e;stroke-width:0.4;stroke-dasharray:none;stroke-dashoffset:0;stroke-opacity:1;paint-order:fill markers stroke"
       id="ellipse5"
       sodipodi:type="arc"
       sodipodi:cx="99.911926"
       sodipodi:cy="75"
       sodipodi:rx="22.088079"
       sodipodi:ry="5.0000019"
       sodipodi:start="0"
       sodipodi:end="3.1325097"
       sodipodi:open="true"
       sodipodi:arc-type="arc"
       d="M 122.00001,75 A 22.088079,5.0000019 0 0 1 100.01224,79.99995 22.088079,5.0000019 0 0 1 77.824758,75.045414" />
    <path
       style="fill:#8ff265;fill-opacity:0.201794;stroke:#25b32f;stroke-width:0.4;stroke-dasharray:none;stroke-dashoffset:0;stroke-opacity:1;paint-order:fill markers stroke"
       d="m 100,74.999997 34.37157,-32.64032"
       id="path6" />
    <path
       style="fill:#8ff265;fill-opacity:0.201794;stroke:#25b32f;stroke-width:0.4;stroke-dasharray:none;stroke-dashoffset:0;stroke-opacity:1;paint-order:fill markers stroke"
       d="M 100,74.999998 65.628432,42.359678"
       id="path7" />
    <path
       style="fill:none;fill-opacity:0.200295;stroke:#25b32f;stroke-width:0.4;stroke-dasharray:none;stroke-dashoffset:0;stroke-opacity:1;paint-order:fill markers stroke"
       id="ellipse7"
       sodipodi:type="arc"
       sodipodi:cx="100.01029"
       sodipodi:cy="59.701614"
       sodipodi:rx="15.794671"
       sodipodi:ry="1.8663265"
       sodipodi:start="0"
       sodipodi:end="3.1431631"
       sodipodi:open="true"
       sodipodi:arc-type="arc"
       d="m 115.80496,59.701614 a 15.794671,1.8663265 0 0 1 -7.90449,1.616775 15.794671,1.8663265 0 0 1 -15.80183,-0.0015 15.794671,1.8663265 0 0 1 -7.883,-1.61824" />
    <ellipse
       style="fill:none;fill-opacity:0.201667;stroke:#25b32f;stroke-width:0.4;stroke-dasharray:none;stroke-dashoffset:0;stroke-opacity:1;paint-order:fill markers stroke"
       id="ellipse20"
       cx="100"
       cy="42.415779"
       rx="34.134735"
       ry="4.4157786" />
    <path
       style="fill:none;fill-opacity:0.201667;stroke:#218fde;stroke-width:0.5;stroke-dasharray:1.5, 1.5;stroke-dashoffset:0;stroke-opacity:1;paint-order:fill markers stroke"
       id="path30"
       sodipodi:type="arc"
       sodipodi:cx="100"
       sodipodi:cy="75"
       sodipodi:rx="47.400372"
       sodipodi:ry="10.729857"
       sodipodi:start="3.1989145"
       sodipodi:end="6.2534669"
       sodipodi:open="true"
       sodipodi:arc-type="arc"
       d="M 52.677481,74.385282 A 47.400372,10.729857 0 0 1 100.65419,64.271164 47.400372,10.729857 0 0 1 147.37944,74.681173" />
    <path
       style="fill:none;fill-opacity:0.200295;stroke:#ec7e7e;stroke-width:0.4;stroke-dasharray:1.2, 1.2;stroke-dashoffset:0;stroke-opacity:1;paint-order:fill markers stroke"
       id="path31"
       sodipodi:type="arc"
       sodipodi:cx="100"
       sodipodi:cy="75"
       sodipodi:rx="22.088079"
       sodipodi:ry="5.0000019"
       sodipodi:start="3.1262271"
       sodipodi:end="0.0080272838"
       sodipodi:open="true"
       sodipodi:arc-type="arc"
       d="m 77.914528,75.076825 a 22.088079,5.0000019 0 0 1 10.896984,-4.38791 22.088079,5.0000019 0 0 1 22.236918,-0.01847 22.088079,5.0000019 0 0 1 11.03894,4.36969" />
    <path
       style="fill:none;fill-opacity:0.200295;stroke:#25b32f;stroke-width:0.4;stroke-dasharray:1.2, 1.2;stroke-dashoffset:0;stroke-opacity:1;paint-order:fill markers stroke"
       id="path32"
       sodipodi:type="arc"
       sodipodi:cx="99.808029"
       sodipodi:cy="59.723145"
       sodipodi:rx="15.794671"
       sodipodi:ry="1.8663265"
       sodipodi:start="3.0819288"
       sodipodi:end="0.087789606"
       sodipodi:open="true"
       sodipodi:arc-type="arc"
       d="m 84.041463,59.834431 a 15.794671,1.8663265 0 0 1 7.725871,-1.717673 15.794671,1.8663265 0 0 1 16.460526,0.02735 15.794671,1.8663265 0 0 1 7.31401,1.742666" />
    <path
       style="fill:none;fill-opacity:0.201667;stroke:#25b32f;stroke-width:0.4;stroke-dasharray:1.2, 1.2;stroke-dashoffset:0;stroke-opacity:1;paint-order:fill markers stroke"
       id="path33"
       sodipodi:type="arc"
       sodipodi:cx="100"
       sodipodi:cy="42.415779"
       sodipodi:rx="34.134735"
       sodipodi:ry="4.4157786"
       sodipodi:start="3.0644064"
       sodipodi:end="0.054257086"
       sodipodi:open="true"
       sodipodi:arc-type="arc"
       d="m 65.966897,42.756278 a 34.134735,4.4157786 0 0 1 15.988899,-4.088879 34.134735,4.4157786 0 0 1 35.419334,-0.05253 34.134735,4.4157786 0 0 1 16.70937,4.040382" />
    <path
       style="opacity:0.368708;fill:url(#pattern47);fill-opacity:1;stroke:#25b32f;stroke-width:0.519926;stroke-dasharray:1.55978, 1.55978;stroke-dashoffset:0;stroke-opacity:0.220868;paint-order:fill markers stroke"
       d="m 363.34009,231.56217 c -11.05663,-0.32579 -24.88237,-1.41127 -32.32747,-2.53808 -6.37618,-0.96503 -9.06442,-1.74726 -12.78616,-3.72055 -0.41566,-0.22038 -61.25689,-57.94347 -61.18753,-58.05164 0.0211,-0.033 1.61429,0.38246 3.54034,0.92316 18.72943,5.25791 57.43628,8.91341 100.78334,9.51804 l 15.56189,0.21707 v 26.94232 26.94232 l -5.24461,-0.0707 c -2.88454,-0.0389 -6.63745,-0.11176 -8.3398,-0.16192 z"
       id="path44"
       transform="scale(0.26458333)" />
    <path
       style="opacity:0.369499;fill:url(#pattern46);fill-opacity:1;stroke:#25b32f;stroke-width:0.519926;stroke-dasharray:1.55978, 1.55978;stroke-dashoffset:0;stroke-opacity:0.220868;paint-order:fill markers stroke"
       d="m 378.98796,204.90467 v -26.9945 l 15.56189,-0.21707 c 43.31156,-0.60413 82.0286,-4.25302 100.67765,-9.48837 1.98418,-0.55702 3.62695,-0.98579 3.65062,-0.95283 0.0237,0.033 -13.72401,13.12614 -30.55038,29.09595 -24.23431,23.00063 -30.96224,29.20696 -32.36788,29.85847 -6.34986,2.94312 -22.78833,4.82715 -47.60038,5.45552 l -9.37152,0.23734 z"
       id="path45"
       transform="scale(0.26458333)" />
    <path
       style="fill:#a9dff6;fill-opacity:0;stroke:#25b32f;stroke-width:0.5;stroke-dasharray:none;stroke-dashoffset:0;stroke-opacity:1;paint-order:fill markers stroke"
       id="circle49"
       sodipodi:type="arc"
       sodipodi:cx="100"
       sodipodi:cy="75"
       sodipodi:rx="47.400372"
       sodipodi:ry="47.400372"
       sodipodi:start="3.9081538"
       sodipodi:end="5.5114646"
       sodipodi:open="true"
       sodipodi:arc-type="arc"
       d="M 65.857497,42.120147 A 47.400372,47.400372 0 0 1 99.877718,27.599786 47.400372,47.400372 0 0 1 133.9724,41.944426" />
    <path
       style="opacity:0.372145;fill:#25b32f;stroke:#000000;stroke-width:0;stroke-dasharray:none"
       d="m 356.63385,175.84961 c -46.88074,-1.00608 -87.66524,-5.62994 -101.47974,-11.50507 -2.07614,-0.88296 -5.13212,-3.35098 -5.13212,-4.14472 0,-0.68618 1.9689,-2.48335 3.61105,-3.2961 6.90383,-3.41689 23.53182,-6.63948 45.56797,-8.83131 19.38769,-1.9284 38.27488,-2.91724 66.46045,-3.47955 l 11.26303,-0.2247 v 15.85668 15.85667 l -8.16784,-0.0735 c -4.49232,-0.0404 -9.94758,-0.11171 -12.1228,-0.15839 z"
       id="path9"
       transform="scale(0.26458333)" />
    <path
       style="opacity:0.372145;fill:#25b32f;stroke:#000000;stroke-width:0;stroke-dasharray:none"
       d="m 378.98795,160.31607 v -15.8742 l 2.32138,0.004 c 7.17654,0.0109 33.65657,0.76591 42.21486,1.20366 39.37662,2.01406 68.49119,6.17474 78.75521,11.25467 1.68412,0.83352 3.6111,2.61566 3.61087,3.33946 -2.6e-4,0.82788 -3.03822,3.21724 -5.34937,4.20729 -14.31341,6.13157 -56.23852,10.5948 -108.05452,11.50317 l -13.49843,0.23664 z"
       id="path10"
       transform="scale(0.26458333)" />
    <path
       style="opacity:0.372145;fill:#25b32f;fill-opacity:0.496959;stroke:#000000;stroke-width:0;stroke-dasharray:none"
       d="m 256.72822,153.14971 c 1.63919,-1.60474 6.80262,-6.05415 9.97337,-8.59421 29.54346,-23.66696 66.86433,-37.64486 103.7746,-38.86703 l 6.4483,-0.21351 v 18.56856 18.56856 l -14.0143,0.23442 c -39.93182,0.66794 -72.36946,3.30451 -94.11091,7.64947 -3.84438,0.76829 -9.90244,2.31584 -12.07106,3.0836 l -0.68782,0.24351 z"
       id="path11"
       transform="scale(0.26458333)" />
    <path
       style="opacity:0.372145;fill:#25b32f;fill-opacity:0.50021;stroke:#000000;stroke-width:0;stroke-dasharray:none"
       d="m 496.60489,152.83451 c -16.64587,-5.32241 -56.94564,-9.20758 -103.60264,-9.98801 l -14.0143,-0.23442 v -18.56856 -18.56856 l 6.44829,0.21351 c 38.40313,1.2716 77.41259,16.45358 107.2137,41.72621 5.25675,4.45795 7.28045,6.30317 6.87818,6.27157 -0.18915,-0.0149 -1.5046,-0.39815 -2.92323,-0.85174 z"
       id="path12"
       transform="scale(0.26458333)" />
    <g
       inkscape:label=""
       transform="translate(105.05563,8.224428)"
       id="g14">
      <g
         fill="#000000"
         fill-opacity="1"
         id="g2"
         transform="matrix(0.635,0,0,0.635,-58.5609,-49.2485)">
        <g
           id="use1"
           transform="translate(91.925003,81.962997)">
          <path
             d="M 3.328125,-3.015625 C 3.390625,-3.265625 3.625,-4.1875 4.3125,-4.1875 c 0.046875,0 0.296875,0 0.5,0.125 C 4.53125,-4 4.34375,-3.765625 4.34375,-3.515625 c 0,0.15625 0.109375,0.34375 0.375,0.34375 0.21875,0 0.53125,-0.171875 0.53125,-0.578125 0,-0.515625 -0.578125,-0.65625 -0.921875,-0.65625 -0.578125,0 -0.921875,0.53125 -1.046875,0.75 -0.25,-0.65625 -0.78125,-0.75 -1.078125,-0.75 -1.03125,0 -1.609375,1.28125 -1.609375,1.53125 0,0.109375 0.109375,0.109375 0.125,0.109375 0.078125,0 0.109375,-0.03125 0.125,-0.109375 0.34375,-1.0625 1,-1.3125 1.34375,-1.3125 0.1875,0 0.53125,0.09375 0.53125,0.671875 0,0.3125 -0.171875,0.96875 -0.53125,2.375 -0.15625,0.609375 -0.515625,1.03125 -0.953125,1.03125 -0.0625,0 -0.28125,0 -0.5,-0.125 0.25,-0.0625 0.46875,-0.265625 0.46875,-0.546875 0,-0.265625 -0.21875,-0.34375 -0.359375,-0.34375 -0.3125,0 -0.546875,0.25 -0.546875,0.578125 0,0.453125 0.484375,0.65625 0.921875,0.65625 0.671875,0 1.03125,-0.703125 1.046875,-0.75 0.125,0.359375 0.484375,0.75 1.078125,0.75 1.03125,0 1.59375,-1.28125 1.59375,-1.53125 0,-0.109375 -0.078125,-0.109375 -0.109375,-0.109375 -0.09375,0 -0.109375,0.046875 -0.140625,0.109375 -0.328125,1.078125 -1,1.3125 -1.3125,1.3125 -0.390625,0 -0.546875,-0.3125 -0.546875,-0.65625 0,-0.21875 0.046875,-0.4375 0.15625,-0.875 z m 0,0"
             id="path14" />
        </g>
      </g>
    </g>
    <g
       inkscape:label=""
       transform="translate(62.415361,113.40254)"
       id="g17">
      <g
         fill="#000000"
         fill-opacity="1"
         id="g16"
         transform="matrix(0.635,0,0,0.635,-58.5609,-49.2485)">
        <g
           id="g15"
           transform="translate(91.925003,81.962997)">
          <path
             d="m 4.84375,-3.796875 c 0.046875,-0.140625 0.046875,-0.15625 0.046875,-0.234375 0,-0.171875 -0.140625,-0.265625 -0.296875,-0.265625 -0.09375,0 -0.25,0.0625 -0.34375,0.203125 -0.015625,0.0625 -0.109375,0.359375 -0.140625,0.546875 -0.078125,0.25 -0.140625,0.53125 -0.203125,0.796875 l -0.453125,1.796875 c -0.03125,0.140625 -0.46875,0.84375 -1.125,0.84375 -0.5,0 -0.609375,-0.4375 -0.609375,-0.8125 C 1.71875,-1.375 1.890625,-2 2.21875,-2.875 2.375,-3.28125 2.421875,-3.390625 2.421875,-3.59375 c 0,-0.4375 -0.3125,-0.8125 -0.8125,-0.8125 -0.953125,0 -1.3125,1.453125 -1.3125,1.53125 0,0.109375 0.09375,0.109375 0.109375,0.109375 0.109375,0 0.109375,-0.03125 0.15625,-0.1875 0.28125,-0.9375 0.671875,-1.234375 1.015625,-1.234375 0.078125,0 0.25,0 0.25,0.3125 0,0.25 -0.109375,0.515625 -0.171875,0.703125 -0.40625,1.0625 -0.578125,1.625 -0.578125,2.09375 0,0.890625 0.625,1.1875 1.21875,1.1875 0.390625,0 0.71875,-0.171875 1,-0.453125 -0.125,0.515625 -0.25,1.015625 -0.640625,1.546875 -0.265625,0.328125 -0.640625,0.625 -1.09375,0.625 -0.140625,0 -0.59375,-0.03125 -0.765625,-0.421875 0.15625,0 0.296875,0 0.421875,-0.125 C 1.328125,1.203125 1.421875,1.0625 1.421875,0.875 1.421875,0.5625 1.15625,0.53125 1.0625,0.53125 0.828125,0.53125 0.5,0.6875 0.5,1.171875 c 0,0.5 0.4375,0.875 1.0625,0.875 1.015625,0 2.046875,-0.90625 2.328125,-2.03125 z m 0,0"
             id="path15" />
        </g>
      </g>
    </g>
    <g
       inkscape:label=""
       transform="translate(164.69196,77.599967)"
       id="g20">
      <g
         fill="#000000"
         fill-opacity="1"
         id="g19"
         transform="matrix(0.635,0,0,0.635,-58.6403,-49.2485)">
        <g
           id="g18"
           transform="translate(91.925003,81.962997)">
          <path
             d="m 1.328125,-0.828125 c 0.53125,-0.578125 0.828125,-0.828125 1.1875,-1.140625 0,0 0.609375,-0.53125 0.96875,-0.890625 C 4.4375,-3.78125 4.65625,-4.265625 4.65625,-4.3125 c 0,-0.09375 -0.09375,-0.09375 -0.109375,-0.09375 -0.078125,0 -0.09375,0.015625 -0.15625,0.109375 -0.296875,0.484375 -0.5,0.640625 -0.734375,0.640625 -0.25,0 -0.359375,-0.15625 -0.515625,-0.328125 -0.1875,-0.21875 -0.359375,-0.421875 -0.6875,-0.421875 -0.75,0 -1.203125,0.921875 -1.203125,1.140625 0,0.046875 0.03125,0.109375 0.109375,0.109375 0.09375,0 0.109375,-0.046875 0.140625,-0.109375 0.1875,-0.46875 0.765625,-0.46875 0.84375,-0.46875 0.203125,0 0.390625,0.0625 0.625,0.140625 0.40625,0.15625 0.515625,0.15625 0.765625,0.15625 -0.359375,0.421875 -1.1875,1.140625 -1.375,1.296875 l -0.90625,0.84375 C 0.78125,-0.625 0.421875,-0.0625 0.421875,0.015625 c 0,0.09375 0.109375,0.09375 0.125,0.09375 0.078125,0 0.09375,-0.015625 0.15625,-0.125 0.234375,-0.359375 0.53125,-0.625 0.859375,-0.625 0.21875,0 0.328125,0.09375 0.578125,0.375 0.15625,0.21875 0.34375,0.375 0.625,0.375 1,0 1.578125,-1.265625 1.578125,-1.53125 0,-0.046875 -0.046875,-0.109375 -0.125,-0.109375 -0.09375,0 -0.109375,0.0625 -0.140625,0.140625 C 3.84375,-0.75 3.203125,-0.5625 2.875,-0.5625 c -0.1875,0 -0.375,-0.0625 -0.578125,-0.125 -0.34375,-0.125 -0.5,-0.171875 -0.703125,-0.171875 -0.015625,0 -0.171875,0 -0.265625,0.03125 z m 0,0"
             id="path17" />
        </g>
      </g>
    </g>
    <path
       style="fill:none;fill-opacity:0.25655;stroke:#25b32f;stroke-width:0.4;stroke-dasharray:none;stroke-dashoffset:0;stroke-opacity:1;paint-order:fill markers stroke"
       id="circle20"
       sodipodi:type="arc"
       sodipodi:cx="99.911926"
       sodipodi:cy="75"
       sodipodi:rx="22.088079"
       sodipodi:ry="22.088079"
       sodipodi:start="3.9082403"
       sodipodi:end="5.5084911"
       sodipodi:arc-type="arc"
       d="m 84.003201,59.676955 a 22.088079,22.088079 0 0 1 15.819859,-6.764856 22.088079,22.088079 0 0 1 15.87378,6.637343"
       sodipodi:open="true" />
    <path
       style="opacity:0.69773;fill:none;fill-opacity:1;stroke:#020202;stroke-width:0.563;stroke-dasharray:none;stroke-opacity:1;marker-end:url(#marker13)"
       d="M 100,74.999997 109.22598,34.28492"
       id="path20" />
    <path
       style="fill:none;stroke:#000000;stroke-width:0.562999;stroke-dasharray:none;stroke-opacity:1;marker-end:url(#marker13)"
       d="m 100.27389,32.819848 c 0,0 -14.122366,0.0011 -27.386265,13.768384"
       id="path8"
       sodipodi:nodetypes="cc" />
    <g
       inkscape:label=""
       transform="translate(122.27156,76.696714)"
       id="g22">
      <g
         fill="#000000"
         fill-opacity="1"
         id="g3"
         transform="matrix(0.635,0,0,0.635,-58.5609,-49.2485)">
        <g
           id="use2"
           transform="translate(91.925003,81.962997)">
          <path
             d="m 0.328125,1.71875 c -0.03125,0.125 -0.03125,0.140625 -0.03125,0.171875 0,0.140625 0.109375,0.265625 0.28125,0.265625 0.203125,0 0.328125,-0.1875 0.34375,-0.21875 0.0625,-0.078125 0.375,-1.421875 0.640625,-2.5 0.203125,0.40625 0.515625,0.671875 0.984375,0.671875 C 3.71875,0.109375 5,-1.296875 5,-2.78125 c 0,-1.0625 -0.65625,-1.625 -1.375,-1.625 -0.96875,0 -2.015625,1 -2.3125,2.21875 z m 2.21875,-1.828125 C 1.84375,-0.109375 1.6875,-0.90625 1.6875,-1 c 0,-0.03125 0.046875,-0.234375 0.078125,-0.359375 0.28125,-1.125 0.375,-1.484375 0.59375,-1.875 0.4375,-0.734375 0.9375,-0.953125 1.234375,-0.953125 0.375,0 0.6875,0.296875 0.6875,0.984375 0,0.546875 -0.28125,1.65625 -0.546875,2.140625 -0.328125,0.640625 -0.8125,0.953125 -1.1875,0.953125 z m 0,0"
             id="path21" />
        </g>
      </g>
      <g
         fill="#000000"
         fill-opacity="1"
         id="g4"
         transform="matrix(0.635,0,0,0.635,-58.5609,-49.2485)">
        <g
           id="use3"
           transform="translate(97.075996,83.457001)">
          <path
             d="m 2.328125,-4.4375 c 0,-0.1875 0,-0.1875 -0.203125,-0.1875 -0.453125,0.4375 -1.078125,0.4375 -1.359375,0.4375 v 0.25 c 0.15625,0 0.625,0 1,-0.1875 v 3.546875 c 0,0.234375 0,0.328125 -0.6875,0.328125 H 0.8125 V 0 c 0.125,0 0.984375,-0.03125 1.234375,-0.03125 0.21875,0 1.09375,0.03125 1.25,0.03125 V -0.25 H 3.03125 c -0.703125,0 -0.703125,-0.09375 -0.703125,-0.328125 z m 0,0"
             id="path22" />
        </g>
      </g>
    </g>
    <g
       inkscape:label=""
       transform="translate(148.40171,76.14838)"
       id="g27">
      <g
         fill="#000000"
         fill-opacity="1"
         id="g24"
         transform="matrix(0.635,0,0,0.635,-58.5609,-49.2485)">
        <g
           id="g23"
           transform="translate(91.925003,81.962997)">
          <path
             d="m 0.328125,1.71875 c -0.03125,0.125 -0.03125,0.140625 -0.03125,0.171875 0,0.140625 0.109375,0.265625 0.28125,0.265625 0.203125,0 0.328125,-0.1875 0.34375,-0.21875 0.0625,-0.078125 0.375,-1.421875 0.640625,-2.5 0.203125,0.40625 0.515625,0.671875 0.984375,0.671875 C 3.71875,0.109375 5,-1.296875 5,-2.78125 c 0,-1.0625 -0.65625,-1.625 -1.375,-1.625 -0.96875,0 -2.015625,1 -2.3125,2.21875 z m 2.21875,-1.828125 C 1.84375,-0.109375 1.6875,-0.90625 1.6875,-1 c 0,-0.03125 0.046875,-0.234375 0.078125,-0.359375 0.28125,-1.125 0.375,-1.484375 0.59375,-1.875 0.4375,-0.734375 0.9375,-0.953125 1.234375,-0.953125 0.375,0 0.6875,0.296875 0.6875,0.984375 0,0.546875 -0.28125,1.65625 -0.546875,2.140625 -0.328125,0.640625 -0.8125,0.953125 -1.1875,0.953125 z m 0,0"
             id="path23" />
        </g>
      </g>
      <g
         fill="#000000"
         fill-opacity="1"
         id="g26"
         transform="matrix(0.635,0,0,0.635,-58.5609,-49.2485)">
        <g
           id="g25"
           transform="translate(97.075996,83.457001)">
          <path
             d="M 3.515625,-1.265625 H 3.28125 c -0.015625,0.15625 -0.09375,0.5625 -0.1875,0.625 C 3.046875,-0.59375 2.515625,-0.59375 2.40625,-0.59375 H 1.125 c 0.734375,-0.640625 0.984375,-0.84375 1.390625,-1.171875 0.515625,-0.40625 1,-0.84375 1,-1.5 0,-0.84375 -0.734375,-1.359375 -1.625,-1.359375 -0.859375,0 -1.453125,0.609375 -1.453125,1.25 0,0.34375 0.296875,0.390625 0.375,0.390625 0.15625,0 0.359375,-0.125 0.359375,-0.375 0,-0.125 -0.046875,-0.375 -0.40625,-0.375 C 0.984375,-4.21875 1.453125,-4.375 1.78125,-4.375 c 0.703125,0 1.0625,0.546875 1.0625,1.109375 0,0.609375 -0.4375,1.078125 -0.65625,1.328125 L 0.515625,-0.265625 C 0.4375,-0.203125 0.4375,-0.1875 0.4375,0 h 2.875 z m 0,0"
             id="path24" />
        </g>
      </g>
    </g>
    <g
       inkscape:label=""
       transform="translate(82.431285,31.921205)"
       id="g29">
      <g
         fill="#000000"
         fill-opacity="1"
         id="g28"
         transform="matrix(0.635,0,0,0.635,-58.6403,-47.5817)">
        <g
           id="g21"
           transform="translate(91.925003,81.962997)">
          <path
             d="m 4.53125,-4.984375 c 0,-0.65625 -0.171875,-2.046875 -1.1875,-2.046875 -1.390625,0 -2.921875,2.8125 -2.921875,5.09375 0,0.9375 0.28125,2.046875 1.1875,2.046875 1.40625,0 2.921875,-2.859375 2.921875,-5.09375 z M 1.46875,-3.625 C 1.640625,-4.25 1.84375,-5.046875 2.25,-5.765625 2.515625,-6.25 2.875,-6.8125 3.328125,-6.8125 c 0.484375,0 0.546875,0.640625 0.546875,1.203125 0,0.5 -0.078125,1 -0.3125,1.984375 z m 2,0.328125 C 3.359375,-2.84375 3.15625,-2 2.765625,-1.28125 c -0.34375,0.6875 -0.71875,1.171875 -1.15625,1.171875 -0.328125,0 -0.53125,-0.296875 -0.53125,-1.21875 0,-0.421875 0.0625,-1 0.3125,-1.96875 z m 0,0"
             id="path16" />
        </g>
      </g>
    </g>
  </g>
  <g
     inkscape:label=""
     transform="translate(59.941734,19.161098)"
     id="g41">
    <g
       fill="#000000"
       fill-opacity="1"
       id="g6"
       transform="matrix(0.635,0,0,0.635,-58.6403,-47.2939)">
      <g
         id="use5"
         transform="translate(91.925003,81.962997)">
        <path
           d="M 7.34375,-6.734375 H 0.625 l -0.203125,2.40625 h 0.46875 c 0.09375,-1.125 0.1875,-1.9375 1.625,-1.9375 H 3.28125 V -0.46875 H 1.75 V 0 c 0.546875,-0.03125 1.65625,-0.03125 2.234375,-0.03125 0.59375,0 1.703125,0 2.234375,0.03125 V -0.46875 H 4.6875 v -5.796875 h 0.765625 c 1.421875,0 1.53125,0.796875 1.625,1.9375 h 0.46875 z m 0,0"
           id="path37" />
      </g>
    </g>
    <g
       fill="#000000"
       fill-opacity="1"
       id="g7"
       transform="matrix(0.635,0,0,0.635,-58.6403,-47.2939)">
      <g
         id="use6"
         transform="translate(99.894997,83.457001)">
        <path
           d="m 3.046875,-2.671875 c -0.25,0.046875 -0.34375,0.234375 -0.34375,0.390625 0,0.1875 0.140625,0.265625 0.265625,0.265625 0.15625,0 0.390625,-0.109375 0.390625,-0.453125 0,-0.46875 -0.53125,-0.609375 -0.90625,-0.609375 -1.046875,0 -2.015625,0.96875 -2.015625,1.9375 0,0.59375 0.40625,1.203125 1.28125,1.203125 1.1875,0 1.734375,-0.6875 1.734375,-0.78125 0,-0.046875 -0.0625,-0.125 -0.125,-0.125 -0.03125,0 -0.046875,0.015625 -0.109375,0.078125 C 2.671875,-0.125 1.859375,-0.125 1.734375,-0.125 c -0.5,0 -0.71875,-0.34375 -0.71875,-0.78125 0,-0.1875 0.09375,-0.953125 0.453125,-1.4375 0.265625,-0.34375 0.625,-0.53125 0.984375,-0.53125 0.09375,0 0.421875,0.015625 0.59375,0.203125 z m 0,0"
           id="path38" />
      </g>
    </g>
    <g
       fill="#000000"
       fill-opacity="1"
       id="g8"
       transform="matrix(0.635,0,0,0.635,-58.6403,-47.2939)">
      <g
         id="use7"
         transform="translate(103.954,81.962997)">
        <path
           d="m 3.296875,2.390625 c 0,-0.03125 0,-0.046875 -0.171875,-0.21875 C 1.890625,0.921875 1.5625,-0.96875 1.5625,-2.5 c 0,-1.734375 0.375,-3.46875 1.609375,-4.703125 0.125,-0.125 0.125,-0.140625 0.125,-0.171875 0,-0.078125 -0.03125,-0.109375 -0.09375,-0.109375 -0.109375,0 -1,0.6875 -1.59375,1.953125 -0.5,1.09375 -0.625,2.203125 -0.625,3.03125 0,0.78125 0.109375,1.984375 0.65625,3.125 C 2.25,1.84375 3.09375,2.5 3.203125,2.5 c 0.0625,0 0.09375,-0.03125 0.09375,-0.109375 z m 0,0"
           id="path39" />
      </g>
    </g>
    <g
       fill="#000000"
       fill-opacity="1"
       id="g9"
       transform="matrix(0.635,0,0,0.635,-58.6403,-47.2939)">
      <g
         id="use8"
         transform="translate(107.828,81.962997)">
        <path
           d="m 2.046875,-3.984375 h 0.9375 c 0.203125,0 0.3125,0 0.3125,-0.203125 0,-0.109375 -0.109375,-0.109375 -0.28125,-0.109375 h -0.875 C 2.5,-5.71875 2.546875,-5.90625 2.546875,-5.96875 c 0,-0.171875 -0.125,-0.265625 -0.296875,-0.265625 -0.03125,0 -0.3125,0 -0.390625,0.359375 L 1.46875,-4.296875 h -0.9375 c -0.203125,0 -0.296875,0 -0.296875,0.1875 0,0.125 0.078125,0.125 0.28125,0.125 h 0.875 C 0.671875,-1.15625 0.625,-0.984375 0.625,-0.8125 0.625,-0.265625 1,0.109375 1.546875,0.109375 2.5625,0.109375 3.125,-1.34375 3.125,-1.421875 3.125,-1.53125 3.046875,-1.53125 3.015625,-1.53125 2.921875,-1.53125 2.90625,-1.5 2.859375,-1.390625 2.4375,-0.34375 1.90625,-0.109375 1.5625,-0.109375 c -0.203125,0 -0.3125,-0.125 -0.3125,-0.453125 0,-0.25 0.03125,-0.3125 0.0625,-0.484375 z m 0,0"
           id="path40" />
      </g>
    </g>
    <g
       fill="#000000"
       fill-opacity="1"
       id="g10"
       transform="matrix(0.635,0,0,0.635,-58.6403,-47.2939)">
      <g
         id="use9"
         transform="translate(111.426,81.962997)">
        <path
           d="m 2.875,-2.5 c 0,-0.765625 -0.109375,-1.96875 -0.65625,-3.109375 -0.59375,-1.21875 -1.453125,-1.875 -1.546875,-1.875 -0.0625,0 -0.109375,0.046875 -0.109375,0.109375 0,0.03125 0,0.046875 0.1875,0.234375 0.984375,0.984375 1.546875,2.5625 1.546875,4.640625 0,1.71875 -0.359375,3.46875 -1.59375,4.71875 C 0.5625,2.34375 0.5625,2.359375 0.5625,2.390625 0.5625,2.453125 0.609375,2.5 0.671875,2.5 0.765625,2.5 1.671875,1.8125 2.25,0.546875 2.765625,-0.546875 2.875,-1.65625 2.875,-2.5 Z m 0,0"
           id="path41" />
      </g>
    </g>
  </g>
</svg>
